<svg width="600" height="600" viewBox="0 0 600 600" xmlns="http://www.w3.org/2000/svg">
  <defs>
	<linearGradient id="tstd" x1="0" x2="0.1" y1="0" y2="1">
      <stop offset="25%" stop-color="white"/>
      <stop offset="95%" stop-color="#81554d"/>
    </linearGradient>
  </defs>
  <style type="text/css"><![CDATA[
	.plain{fill:white}
    #tstdbs{fill:#81554d}
    #tstdbd{fill:url(#tstd)}
	.lnrt{stroke:black;fill:none;stroke-width:7;stroke-linecap:round;stroke-linejoin:bevel}
    .lnft{stroke:black;fill:gray;stroke-width:12;stroke-linecap:round}
    .tt{font-size:60px;font-family:Arial}
    .tb{font-weight:bold}
  ]]></style>
  <rect width="100%" height="100%" fill="#c0caff"/>
  <g id="chub" transform="scale(1,-1)" transform-origin="center">
  <ellipse cx="300" cy="460" rx="160" ry="50" class="plain"/>
  <rect x="140" y="140" width="320" height="320" class="plain"/>
  <ellipse cx="300" cy="140" rx="160" ry="50" style="fill:#FAF6F6"/>
  <g id="face" transform-origin="center center" transform="rotate(-5),translate(260,284)">
    <text class="tt tb" transform="translate(-2,24)">✕</text>
    <text class="tt tb" transform="translate(97,24)">✕</text>
    <text class="tt" transform="translate(-10,76),rotate(10)">=</text>
	<text class="tt" transform="translate(114,83),rotate(-10)">=</text>
    <path d="M50,0 a1,0.9 0 0,0 60,0" class="lnrt" transform="translate(-10,100)"/>
    <path d="M50,0 a0.9,1 0 0,1 60,-8" class="lnft" transform="translate(-98,-142)"/>
    <path d="M50,0 a0.9,1 0 0,1 60,12" class="lnft" transform="translate(66,-146)"/>
    <path d="M66,-146 70,-204 30,-224" class="lnrt"/>
    <ellipse cx="30" cy="-224" rx="14" ry="14" style="fill:black"/>
  </g></g>
</svg>