<svg width="600" height="600" viewBox="0 0 600 600" xmlns="http://www.w3.org/2000/svg">
  <defs>
	<linearGradient id="tstd" x1="0" x2="0.1" y1="0" y2="1">
      <stop offset="25%" stop-color="white"/>
      <stop offset="95%" stop-color="#81554d"/>
    </linearGradient>
    <filter xmlns="http://www.w3.org/2000/svg" id="fuzz" x="-50%" y="-50%" width="200%" height="200%"><feTurbulence baseFrequency="0.5" type="fractalNoise"/><feDisplacementMap in="SourceGraphic" scale="0"><animate attributeName="scale" begin="0s" dur="0.5s" values="36.72;58.84;36.90;14.99;13.26;47.30;58.24;21.58;46.51;40.17;35.83;36.08;42.74;32.16;46.57;33.67;17.31;52.09;30.80;40.37;43.99;36.21;16.18;20.04;15.72;50.92;41.35;26.12;31.38;30.41;59.51;10.51;45.48;19.59;58.88;33.92;26.88;13.50;31.85;43.88;33.05;22.82;56.26;27.90;51.95;26.47;27.13;32.41;18.12;52.98;50.04;17.62;27.43;52.81;21.61;15.11;25.89;27.39;39.35;51.29" repeatCount="indefinite"/></feDisplacementMap></filter>
  </defs>
  <style type="text/css"><![CDATA[
	.plain{fill:white}
    #tstdbs{fill:#81554d}
    #tstdbd{fill:url(#tstd)}
	.lnrt{stroke:black;fill:none;stroke-width:7;stroke-linecap:round}
    .lnft{stroke:black;fill:gray;stroke-width:12;stroke-linecap:round}
    .tt{font-size:60px;font-weight:bold;font-family:Arial}
    #chub{-webkit-filter:invert(0.8);filter:invert(0.8)}
    #face{filter:url(#fuzz)}
  ]]></style>
  <rect width="100%" height="100%" fill="#c0caff"/>
  <g id="chub"><g id="fil">
  <ellipse cx="300" cy="460" rx="160" ry="50" class="plain"/>
  <rect x="140" y="140" width="320" height="320" class="plain"/>
  <ellipse cx="300" cy="140" rx="160" ry="50" style="fill:#FAF6F6"/>
  <g id="face" transform-origin="center center" transform="rotate(-5),translate(260,284)">
    <text class="tt" transform="translate(-2,24)">✕</text>
    <text class="tt" transform="translate(94,24)">✕</text>
	<path d="M50,0 a1,0.9 0 0,0 60,0" class="lnrt" transform="translate(-10,100)"/>
    <path d="M50,0 a0.9,1 0 0,1 60,-8" class="lnft" transform="translate(-98,-142)"/>
    <path d="M50,0 a0.9,1 0 0,1 60,12" class="lnft" transform="translate(66,-146)"/>
  </g></g></g>
</svg>