<svg viewBox="0 0 500 500" fill="none" xmlns="http://www.w3.org/2000/svg" xmlns:xlink="http://www.w3.org/1999/xlink"><rect width="500" height="500" fill="#FDFF50" /><rect id="rect" style="mix-blend-mode:overlay" opacity=".2" width="100%" height="100%" fill="#FF89B5"/><defs><filter xmlns="http://www.w3.org/2000/svg" id="Gl" x="-50%" y="-50%" width="200%" height="200%"><feDropShadow dx="8" dy="8" flood-color="#000000" flood-opacity="1" stdDeviation="0"/></filter></defs><g filter="url(#Gl)" stroke="#000000" stroke-width="4"><defs><path id="ps-2"  d="M233.947 227.947C226.185 220.185 228.406 206.96 236.932 200.045C243.993 194.318 250.366 187.12 250.483 179.738C250.652 169.036 263.675 185.159 272.962 198.051C278.483 205.715 277.36 216.168 270.682 222.847L249.764 243.764L233.947 227.947Z"/><mask id="fpc"><rect height="100%" width="100%" fill="white" /><use transform = "rotate(72.0 250 250)" xlink:href="#ps-2" fill="black"/></mask></defs><use transform="rotate(0.0 250 250)" xlink:href="#ps-2" mask="url(#fpc)" fill="#19AAD1"/><use transform="rotate(72.0 250 250)" xlink:href="#ps-2" mask="url(#fpc)" fill="#19AAD1"/><use transform="rotate(144.0 250 250)" xlink:href="#ps-2" mask="url(#fpc)" fill="#19AAD1"/><use transform="rotate(216.0 250 250)" xlink:href="#ps-2" mask="url(#fpc)" fill="#19AAD1"/><use transform="rotate(288.0 250 250)" xlink:href="#ps-2" mask="url(#fpc)" fill="#19AAD1"/><circle cx="250" cy="250" r="25" fill="#C02A1B"/></g></svg>