<svg viewBox="0 0 500 500" fill="none" xmlns="http://www.w3.org/2000/svg" xmlns:xlink="http://www.w3.org/1999/xlink"><rect width="500" height="500" fill="#FDFF50" /><rect id="rect" style="mix-blend-mode:overlay" opacity=".2" width="100%" height="100%" fill="#EF3E4A"/><defs><filter xmlns="http://www.w3.org/2000/svg" id="Gl" x="-50%" y="-50%" width="200%" height="200%"><feDropShadow dx="8" dy="8" flood-color="#000000" flood-opacity="1" stdDeviation="0"/></filter></defs><g filter="url(#Gl)" stroke="#000000" stroke-width="4"><defs><path id="ps-11"  d="M225.334 172.528C230.007 166.558 241.793 179.939 245.982 186.259C249.313 191.282 250.687 191.282 254.018 186.259C258.207 179.939 269.993 166.558 274.666 172.528C279.648 178.895 280 198.024 280 208.165C280 227.404 272.091 243 250 243C227.909 243 220 227.404 220 208.165C220 198.024 220.352 178.895 225.334 172.528Z"/><mask id="fpc"><rect height="100%" width="100%" fill="white" /><use transform = "rotate(60.0 250 250)" xlink:href="#ps-11" fill="black"/></mask></defs><use transform="rotate(0.0 250 250)" xlink:href="#ps-11" mask="url(#fpc)" fill="#FF8FA4"/><use transform="rotate(60.0 250 250)" xlink:href="#ps-11" mask="url(#fpc)" fill="#FF8FA4"/><use transform="rotate(120.0 250 250)" xlink:href="#ps-11" mask="url(#fpc)" fill="#FF8FA4"/><use transform="rotate(180.0 250 250)" xlink:href="#ps-11" mask="url(#fpc)" fill="#FF8FA4"/><use transform="rotate(240.0 250 250)" xlink:href="#ps-11" mask="url(#fpc)" fill="#FF8FA4"/><use transform="rotate(300.0 250 250)" xlink:href="#ps-11" mask="url(#fpc)" fill="#FF8FA4"/><circle cx="250" cy="250" r="20" fill="#FF89B5"/></g></svg>