<svg width="600" height="600" viewBox="0 0 600 600" xmlns="http://www.w3.org/2000/svg">
  <defs>
	<linearGradient id="tstd" x1="0" x2="0.1" y1="0" y2="1">
      <stop offset="25%" stop-color="white"/>
      <stop offset="95%" stop-color="#81554d"/>
    </linearGradient>
  </defs>
  <style type="text/css"><![CDATA[
	.plain{fill:white}
    #tstdbs{fill:#81554d}
    #tstdbd{fill:url(#tstd)}
	.lnrt{stroke:black;fill:none;stroke-width:7;stroke-linecap:round}
  ]]></style>
  <rect width="100%" height="100%" fill="#c0caff"/>
  <ellipse cx="300" cy="460" rx="160" ry="50" class="plain"/>
  <rect x="140" y="140" width="320" height="320" class="plain"/>
  <ellipse cx="300" cy="140" rx="160" ry="50" style="fill:#FAF6F6"/>
  <g id="face" transform-origin="center center" transform="rotate(-5),translate(260,284)">
    <ellipse cx="10" cy="10" rx="30" ry="30" style="fill:black"/>
    <ellipse cx="25" cy="5" rx="8" ry="8" style="fill:white"/>
    <ellipse cx="-8" cy="20" rx="4" ry="4" style="fill:white"/>
    <ellipse cx="130" cy="10" rx="30" ry="30" style="fill:black"/>
    <ellipse cx="145" cy="5" rx="8" ry="8" style="fill:white"/>
    <ellipse cx="112" cy="20" rx="4" ry="4" style="fill:white"/>
	<path d="M50,0 a1,0.9 0 0,0 60,0" class="lnrt" transform="translate(-10,100)"/>
    <path d="M20,0 a1,1 0 0,1 100,0" fill="black" transform="translate(-4,-112)"/>
    <path d="M21,0 120,0" stroke="black" stroke-width="2" transform="translate(-4,-112)"/>
    
    <path d="M20,0 a2.5,1.5 18 1,0 100,0" fill="black" transform="translate(-4,-112)"/>
    <path d="M20,0 a8,1 0 1,0 100,0" stroke="#555" stroke-width="1" transform="translate(-4,-112)"/>

    <path class="bigode" d="M277,331.9c-7.4-0.1-17.7-1.4-23.4-6.8c-3.2-3.1-4.8-7.5-8.1-10.5c-2-1.8-5-3-7.9-3.1l0,0
        c-14.1-0.9-25.6,0-25.6,0v0c-2.7,0.2-5.6,1.4-7.5,3.1c-3.2,3-4.8,7.5-8.1,10.5c-5.7,5.4-16,6.7-23.4,6.8c0,0-6.5-0.1-10.6-2.3
        c0,0,6.6,5.5,12.8,7.3c13.2,3.8,32.4,5.8,43.8-4.6l0,0l6-5.7l6,5.7v0c11.4,10.4,30.7,8.4,43.8,4.6c6.2-1.8,12.8-7.3,12.8-7.3
        C283.5,331.8,277,331.9,277,331.9z" transform="translate(-154,-250)"/>
  </g>
</svg>