<svg width="600" height="600" viewBox="0 0 600 600" xmlns="http://www.w3.org/2000/svg">
  <defs>
	<linearGradient id="tstd" x1="0" x2="0.1" y1="0" y2="1">
      <stop offset="25%" stop-color="white"/>
      <stop offset="95%" stop-color="#81554d"/>
    </linearGradient>
  </defs>
  <style type="text/css"><![CDATA[
	.plain{fill:white}
    #tstdbs{fill:#81554d}
    #tstdbd{fill:url(#tstd)}
	.lnrt{stroke:black;fill:none;stroke-width:7;stroke-linecap:round}
  ]]></style>
  <rect width="100%" height="100%" fill="#c0caff"/>
  <ellipse cx="300" cy="460" rx="160" ry="50" class="plain"/>
  <rect x="140" y="140" width="320" height="320" class="plain"/>
  <ellipse cx="300" cy="140" rx="160" ry="50" style="fill:#FAF6F6"/>
  <g id="face" transform-origin="center center" transform="rotate(-5),translate(260,284)">
    <line x1="-5" y1="0" x2="45" y2="0" class="lnrt"/>
    <ellipse cx="28" cy="12" rx="13" ry="13" style="fill:black"/>
    <line x1="90" y1="0" x2="140" y2="0" class="lnrt"/>
    <ellipse cx="123" cy="12" rx="13" ry="13" style="fill:black"/>
	
    <path d="M4.623 27.78C-.62 21.919-.9 12.146 3.975 5.216c4.483-6.372 10.306-6.444 22.16-.274 11.405 5.936 15.884 5.94 25.844.019 9.603-5.71 15.137-5.99 19.605-.996 4.985 5.574 6.003 12.724 2.861 20.09-3.841 9.007-9.145 9.968-21.313 3.863-12.263-6.153-17.197-6.189-28.692-.206-11.331 5.898-14.593 5.909-19.817.068Z" transform="translate(30,100)"/>
    
  </g>
</svg>